<svg xmlns="http://www.w3.org/2000/svg" viewBox="0 0 100 100" width="24" height="24">
  <g>
    <path fill="#FFFFFF" d="M79.762,33.211l-19.891-14.07c-5.898-4.179-13.84-4.179-19.738,0l-19.895,14.07c-4.527,3.211-7.238,8.449-7.238,14.008v20.629c0,9.461,7.68,17.152,17.109,17.152h39.77c9.441,0,17.121-7.691,17.121-17.148V47.219c0-5.559-2.711-10.797-7.238-14.008ZM81,67.852c0,6.148-4.988,11.148-11.109,11.148H30.11c-6.121,0-11.109-5-11.109-11.148V47.219c0-3.621,1.762-7.031,4.711-9.109l19.891-14.07c1.91-1.359,4.148-2.039,6.398-2.039s4.488,0.68,6.41,2.031l19.891,14.07c2.937,2.098,4.699,5.5,4.699,9.117Z"/>
    <path fill="#FFFFFF" d="M50,55c-7.172,0-13,5.828-13,13v2c0,1.66,1.34,3,3,3s3-1.34,3-3v-2c0-3.859,3.141-7,7-7s7,3.141,7,7v2c0,1.66,1.34,3,3,3s3-1.34,3-3v-2c0-7.172-5.828-13-13-13Z"/>
  </g>
</svg>


